<svg width="80" height="80" viewBox="0 0 80 80" fill="none" xmlns="http://www.w3.org/2000/svg">
<g filter="url(#filter0_d_20005153_1499)">
<rect x="4" width="72" height="72" rx="8" fill="#F3F6FF" shape-rendering="crispEdges"/>
<g clip-path="url(#clip0_20005153_1499)">
<path d="M39.9222 56C39.6826 56 39.4434 55.9451 39.2233 55.8352C39.0405 55.7437 34.6954 53.5406 30.1492 48.5989C27.4844 45.7028 25.2957 42.4551 23.6435 38.9465C21.5799 34.5641 20.3552 29.7662 20.0028 24.6859C19.9741 24.2715 20.1117 23.8629 20.3848 23.55C20.6583 23.2372 21.0446 23.0459 21.4594 23.0187C24.321 22.8307 26.5628 20.4342 26.5628 17.5625C26.5628 16.6995 27.2623 16 28.1253 16H51.8753C52.738 16 53.4378 16.6995 53.4378 17.5625C53.4378 20.4324 55.6781 22.8289 58.5382 23.0187C58.9594 23.0465 59.3512 23.2437 59.6246 23.565C59.8984 23.8864 60.0302 24.3047 59.9905 24.725C59.4562 30.3658 57.8986 35.6417 55.3607 40.4064C54.9548 41.1682 54.0085 41.4565 53.2471 41.051C52.4854 40.6454 52.197 39.699 52.6025 38.9373C54.7284 34.9462 56.1099 30.5578 56.7175 25.8737C53.5181 25.0302 51.0602 22.3843 50.4559 19.125H29.5447C28.938 22.3983 26.4621 25.0524 23.2428 25.884C24.064 33.7667 27.128 40.6588 32.3618 46.3882C35.4947 49.8174 38.5663 51.8408 39.9133 52.6415C41.3873 51.7449 44.9521 49.3356 48.4225 45.158C48.974 44.494 49.9588 44.403 50.6229 44.9545C51.2866 45.5059 51.3779 46.491 50.8264 47.1548C45.8875 53.1002 40.8463 55.7198 40.6339 55.8285C40.4105 55.9429 40.1663 56 39.9222 56Z" fill="#6366F1"/>
<path d="M41.1304 47.5443C41.6507 46.8555 41.5143 45.8759 40.8261 45.3556C39.4751 44.3347 38.1967 43.1772 37.0261 41.9156C33.6225 38.2462 31.3132 33.935 30.1532 29.0882C30.7782 28.6054 31.3663 28.0719 31.9092 27.4945C32.8095 26.5366 33.5782 25.4669 34.1941 24.3146C34.6005 23.5535 34.3131 22.6068 33.552 22.2C32.7909 21.7935 31.8442 22.081 31.4377 22.8421C30.9516 23.7516 30.3443 24.5966 29.6326 25.354C29.0052 26.0215 28.302 26.6138 27.5434 27.1152C27.0111 27.4668 26.7459 28.1067 26.8738 28.732C28.0634 34.549 30.708 39.6997 34.7351 44.0409C36.0297 45.4364 37.4451 46.7179 38.942 47.8488C39.224 48.0619 39.5548 48.1647 39.8828 48.1647C40.3559 48.1647 40.8234 47.9508 41.1304 47.5443Z" fill="#D946EF"/>
</g>
</g>
<defs>
<filter id="filter0_d_20005153_1499" x="0" y="0" width="80" height="80" filterUnits="userSpaceOnUse" color-interpolation-filters="sRGB">
<feFlood flood-opacity="0" result="BackgroundImageFix"/>
<feColorMatrix in="SourceAlpha" type="matrix" values="0 0 0 0 0 0 0 0 0 0 0 0 0 0 0 0 0 0 127 0" result="hardAlpha"/>
<feOffset dy="4"/>
<feGaussianBlur stdDeviation="2"/>
<feComposite in2="hardAlpha" operator="out"/>
<feColorMatrix type="matrix" values="0 0 0 0 0 0 0 0 0 0 0 0 0 0 0 0 0 0 0.25 0"/>
<feBlend mode="normal" in2="BackgroundImageFix" result="effect1_dropShadow_20005153_1499"/>
<feBlend mode="normal" in="SourceGraphic" in2="effect1_dropShadow_20005153_1499" result="shape"/>
</filter>
<clipPath id="clip0_20005153_1499">
<rect width="40" height="40" fill="white" transform="translate(20 16)"/>
</clipPath>
</defs>
</svg>
