<svg width="56" height="56" viewBox="0 0 56 56" fill="none" xmlns="http://www.w3.org/2000/svg">
<path fill-rule="evenodd" clip-rule="evenodd" d="M50.0611 9.74412C49.6452 7.50924 48.3218 6.40797 47.1253 5.97496C45.8344 5.50651 43.2167 5.02128 39.9278 4.63208C37.2818 4.31924 34.1719 4.34414 32.2933 4.40245C32.0678 2.85204 30.9847 1.43571 29.7727 0.945356C26.5436 -0.359583 21.5543 -0.0443279 20.2733 0.316101C19.2554 0.601723 18.1287 1.18715 17.5017 2.0891C17.0811 2.69161 16.8091 3.46353 16.8069 4.54193C16.8069 5.15226 16.8239 6.59002 16.8393 7.86735C16.8521 8.93425 16.8659 9.90727 16.8701 10.2077L16.8701 10.2082L16.8715 10.3026C16.8709 11.4435 15.9499 12.3719 14.8086 12.3734H9.57295C8.45623 12.3734 7.60285 12.5618 6.95109 12.8591C6.29827 13.1567 5.83591 13.558 5.4846 14.0326C4.78525 14.975 4.66391 16.1381 4.6668 17.325C4.6668 17.325 4.67709 18.2949 4.90985 20.1721C5.10329 21.6247 6.67227 31.7717 8.16261 34.8578C8.74034 36.0584 9.1253 36.5585 10.2605 37.0877C12.7897 38.1749 18.567 39.3844 21.2747 39.7307C21.7225 39.7882 22.1427 39.8563 22.5368 39.9201L22.5368 39.9201C24.5208 40.2413 25.8414 40.4551 26.6848 38.6796C26.6882 38.6744 26.8874 38.1502 27.1612 37.3812C28.0389 34.711 28.1611 32.3418 28.1611 30.6274C28.1611 30.4531 28.4159 30.4451 28.4159 30.6274C28.4159 30.6947 28.4152 30.7716 28.4144 30.8569V30.8569C28.401 32.3048 28.365 36.1851 31.4085 37.2703C32.6808 37.7233 35.32 38.1272 38.0018 38.4427C40.4266 38.7226 42.1864 39.6806 42.1864 45.9264C42.1864 49.7264 41.3914 50.2473 37.2355 50.2473L36.9264 50.2475C33.7877 50.2501 32.5826 50.2511 32.5826 47.6479C32.5826 45.6611 34.3731 45.6824 35.892 45.7004C36.0335 45.7021 36.1725 45.7037 36.3076 45.7037C36.7533 45.7037 36.7149 45.4942 36.6252 45.0049C36.5724 44.7167 36.5018 44.3315 36.5018 43.835C36.5018 43.27 36.651 42.8061 36.7631 42.4576C36.9154 41.9839 36.9991 41.7234 36.5467 41.7121C31.0639 41.5606 27.8378 41.7058 27.8378 48.5902C27.8378 54.84 30.22 56.0005 38.0018 56.0005C44.1031 56.0005 46.2538 55.7999 48.7731 47.952C49.2718 46.4028 50.4774 41.6748 51.207 33.7365C51.6681 28.7171 50.7719 13.5677 50.0611 9.74412ZM39.4252 26.4902C38.6715 26.4637 37.9464 26.5115 37.2703 26.6206C37.4606 25.0778 38.0949 23.1847 40.3418 23.264C42.829 23.3499 43.1775 25.71 43.1865 27.3087C42.1376 26.8393 40.8393 26.5401 39.4252 26.4902ZM9.33066 10.8485H9.32719C8.04155 10.8485 6.96752 11.0685 6.08175 11.4698C6.04144 11.4875 5.75864 11.6279 5.54872 11.7322L5.54305 11.735C5.54882 11.7132 5.56122 11.6919 5.58112 11.6755L15.7524 1.54899C15.7723 1.52901 15.7924 1.51917 15.8124 1.51579L15.6334 1.85334C15.2587 2.60489 15.0437 3.50191 15.0437 4.53069V4.54546C15.0437 5.75077 15.1026 9.96684 15.107 10.2853L15.1073 10.3044C15.1066 10.6033 14.8654 10.8485 14.5654 10.8485H9.33066Z" fill="#20C05C"/>
</svg>
