<svg width="56" height="56" viewBox="0 0 56 56" fill="none" xmlns="http://www.w3.org/2000/svg">
<path d="M0 28C0 12.536 12.536 0 28 0C43.464 0 56 12.536 56 28C56 43.464 43.464 56 28 56C12.536 56 0 43.464 0 28Z" fill="#4A5FEF"/>
<path fill-rule="evenodd" clip-rule="evenodd" d="M45.7333 18.6862L38.7092 24.2432L28.4666 17.9947L35.5749 12.1333L45.7333 18.6862ZM21.3584 12.1333L28.4663 17.9948L18.2242 24.2431L18.224 24.243L18.2239 24.2431L11.2 18.6862L21.3584 12.1333ZM18.2239 24.2431L11.2 29.8006L21.3583 36.3535L28.4666 30.4917L18.2242 24.2431L18.2241 24.2432L18.2239 24.2431ZM38.7094 24.2435L28.4665 30.4919L35.5747 36.3537L45.7331 29.8008L38.7094 24.2435ZM35.6161 37.5989L28.4871 31.7544L21.3581 37.5989L18.3074 35.6312V37.8371L28.4871 43.8682L38.6669 37.8371V35.6312L35.6161 37.5989Z" fill="white"/>
</svg>
