<svg width="44" height="44" viewBox="0 0 44 44" fill="none" xmlns="http://www.w3.org/2000/svg">
<rect width="44" height="44" rx="6" fill="#EFF2FC"/>
<path d="M29.994 18.0025C29.8023 17.2875 29.2398 16.7233 28.5256 16.5308C27.2206 16.1725 21.9998 16.1666 21.9998 16.1666C21.9998 16.1666 16.7798 16.1608 15.474 16.5033C14.774 16.6941 14.1956 17.2708 14.0023 17.985C13.6581 19.29 13.6548 21.9966 13.6548 21.9966C13.6548 21.9966 13.6515 24.7166 13.9931 26.0083C14.1848 26.7225 14.7473 27.2866 15.4623 27.4791C16.7806 27.8375 21.9873 27.8433 21.9873 27.8433C21.9873 27.8433 27.2081 27.8491 28.5131 27.5075C29.2265 27.3158 29.7915 26.7525 29.9856 26.0383C30.3306 24.7341 30.3331 22.0283 30.3331 22.0283C30.3331 22.0283 30.3498 19.3075 29.994 18.0025ZM20.3298 24.5041L20.334 19.5041L24.6731 22.0083L20.3298 24.5041Z" fill="#33354D"/>
</svg>
